<?xml version="1.0" encoding="UTF-8"?>
<svg width="21px" height="21px" viewBox="0 0 21 21" version="1.1" xmlns="http://www.w3.org/2000/svg" xmlns:xlink="http://www.w3.org/1999/xlink">
    <title>Shape</title>
    <g id="Page-1" stroke="none" stroke-width="1" fill="none" fill-rule="evenodd">
        <g id="MenuBar" transform="translate(-14, -11)" fill="#000000">
            <path d="M35,21.5 C35,27.2990882 30.2990882,32 24.5,32 C18.7010147,32 14,27.2990882 14,21.5 C14,15.7010147 18.7010147,11 24.5,11 C30.2990882,11 35,15.7010147 35,21.5 Z M31.2941176,21.8088642 C31.2941176,25.731698 28.3133667,28.9117647 24.6364028,28.9117647 C24.3814864,28.9117647 24.1298255,28.8965316 23.8823529,28.8668778 C27.2284015,28.4917367 29.8362016,25.4723287 29.8362016,21.802974 C29.8362016,18.1521631 27.254293,15.1445963 23.9323843,14.7451229 C24.1637128,14.7191859 24.3986205,14.7058824 24.6364028,14.7058824 C28.3133667,14.7058824 31.2941176,17.88601 31.2941176,21.8088642 Z M22.0294118,26.36864 C24.2166579,25.9662306 25.8803388,23.9395576 25.8803388,21.5 C25.8803388,19.0603633 24.2166579,17.0336904 22.0294118,16.6313995 C22.2940978,16.5836875 22.5662795,16.5588235 22.8440594,16.5588235 C25.4641814,16.5588235 27.5882353,18.7710673 27.5882353,21.5 C27.5882353,24.2289129 25.4641814,26.4411765 22.8440594,26.4411765 C22.5662795,26.4411765 22.2940978,26.4162729 22.0294118,26.36864 Z" id="Shape"></path>
        </g>
    </g>
</svg>